<svg id="Capa_1" data-name="Capa 1" xmlns="http://www.w3.org/2000/svg" viewBox="0 0 271.95 302.5"><defs><style>.cls-1{fill:#dadada;}.cls-2{fill:#f59c18;}.cls-3{fill:#fab70f;}.cls-4{fill:#f6f6f6;opacity:0.1;}</style></defs><title>logo</title><path class="cls-1" d="M279.18,84.81l-5.58-2.46-121.8,276c-4.64-6.67-14-12.2-21.33-13.09-14-.72-53.12,11.49-53.83,28.5-.56,9.9,15.88,10,29.92,10.7,32.5.17,39.7-1.59,44-8.63l.2.08Z" transform="translate(-76.63 -82.35)"/><path class="cls-1" d="M146.87,85.33l5.59-2.51,121,275.1c4.66-6.71,14.06-12.31,21.37-13.26,14.05-.83,53.07,11.08,53.74,28.08.53,9.9-15.91,10.1-30,10.93-32.5.43-39.69-1.28-43.93-8.29l-.2.09Z" transform="translate(-76.63 -82.35)"/><path class="cls-2" d="M251.18,374.09c0,6.56-17.09,10.75-38.18,10.76s-38.18-4.16-38.18-10.72,17.09-11.88,38.17-11.89S251.18,367.53,251.18,374.09Z" transform="translate(-76.63 -82.35)"/><rect class="cls-2" x="98.19" y="270.86" width="76.37" height="20.33"/><path class="cls-3" d="M251.18,353.17c0,6.56-17.09,10.75-38.18,10.76s-38.18-4.16-38.18-10.72,17.09-11.88,38.17-11.89S251.18,346.62,251.18,353.17Z" transform="translate(-76.63 -82.35)"/><path class="cls-2" d="M313.15,146c-3.07-3.36-10.09-1.47-14.14-1.08l-36.07,3.5c-2.71.26-1.85,3.21.42,3.21H304c-9.14,9.64-16.42,21.6-19.4,34s2.07,24.31.29,36.81c-2,14-10.56,27.78-23.85,35.17a33.67,33.67,0,0,1-32.94.76.86.86,0,0,0-1.28.89c.24.9,2.38,1.55,3.14,1.9,27.67,12.81,54.35-12.86,59.45-36.38a55.36,55.36,0,0,0,.19-21c-2.05-12.57,3.42-25.3,10.72-35.68,3.37-4.79,7.42-8.87,11.42-13.19C314.24,152.63,315.73,148.87,313.15,146Z" transform="translate(-76.63 -82.35)"/><path class="cls-2" d="M112.56,146c3.06-3.36,10.09-1.47,14.13-1.08l36.08,3.5c2.7.26,1.85,3.21-.43,3.21H121.69c9.14,9.64,16.42,21.6,19.4,34S139,210,140.81,222.51c2,14,10.55,27.78,23.84,35.17a33.68,33.68,0,0,0,32.95.76.86.86,0,0,1,1.27.89c-.24.9-2.38,1.55-3.14,1.9-27.66,12.81-54.35-12.86-59.45-36.38a55.36,55.36,0,0,1-.19-21c2.06-12.57-3.42-25.3-10.71-35.68C122,163.38,118,159.3,114,155,111.46,152.63,110,148.87,112.56,146Z" transform="translate(-76.63 -82.35)"/><path class="cls-2" d="M229.57,353.69c-4.15,3.57-25.2,5-33.44,0,6.69-19.84,6.69-76.52,0-96.36q16.73-17.85,33.44,0C222.88,277.17,222.88,333.85,229.57,353.69Z" transform="translate(-76.63 -82.35)"/><path class="cls-3" d="M147.76,137.47a101.62,101.62,0,0,0-1.45,17.08c0,45.31,29.79,112.16,66.54,112.16s66.55-66.85,66.55-112.16a100.58,100.58,0,0,0-1.46-17.08Z" transform="translate(-76.63 -82.35)"/><path class="cls-4" d="M147.76,137.47a101.62,101.62,0,0,0-1.45,17.08c0,33.73,16.51,79.41,40.11,100.55,8.11,7.25,98.29-96.1,91.52-117.63Z" transform="translate(-76.63 -82.35)"/><path class="cls-2" d="M283.08,137.47a3.43,3.43,0,0,1-3.42,3.43H146.05a3.42,3.42,0,0,1-3.42-3.43h0a3.42,3.42,0,0,1,3.42-3.41H279.66a3.42,3.42,0,0,1,3.42,3.41Z" transform="translate(-76.63 -82.35)"/></svg>